<?xml version="1.0" encoding="utf-8"?>
<!-- Generator: Adobe Illustrator 15.0.0, SVG Export Plug-In  -->
<!DOCTYPE svg PUBLIC "-//W3C//DTD SVG 1.1//EN" "http://www.w3.org/Graphics/SVG/1.1/DTD/svg11.dtd" [
	<!ENTITY ns_flows "http://ns.adobe.com/Flows/1.0/">
]>
<svg version="1.1"
	 xmlns="http://www.w3.org/2000/svg" xmlns:xlink="http://www.w3.org/1999/xlink" xmlns:a="http://ns.adobe.com/AdobeSVGViewerExtensions/3.0/"
	 x="0px" y="0px" width="147px" height="81px" viewBox="-3.962 -4.46 147 81" enable-background="new -3.962 -4.46 147 81"
	 xml:space="preserve">
<defs>
</defs>
<path d="M4.1,51.543c0.059,0.944,0.649,2.035,2.478,2.035c1.563,0,2.301-0.885,2.301-1.77c0-0.678-0.354-1.209-2.064-1.681
	L4.1,49.39c-1.209-0.354-3.775-1.091-3.775-4.129c0-2.891,2.655-4.66,6.519-4.66c3.067,0,5.545,1.416,5.663,4.395H8.524
	c-0.118-1.651-1.445-1.77-2.124-1.77c-1.18,0-2.064,0.561-2.064,1.475c0,1.003,0.737,1.209,2.035,1.563L9.055,47
	c2.714,0.737,3.982,2.124,3.982,4.159c0,2.566-2.212,5.132-6.843,5.132c-1.917,0-3.746-0.413-5.103-1.829
	C0.118,53.431,0.029,52.25,0,51.543H4.1z"/>
<path d="M20.088,40.954v8.878c0,1.298,0,3.274,2.33,3.274c2.802,0,2.802-2.094,2.802-4.631v-7.521h4.483v9.822
	c0.059,3.215,0.088,3.599,0.088,3.982c0.029,0.413,0.059,0.678,0.118,1.091h-4.248l-0.147-1.976
	c-0.442,0.649-1.563,2.359-4.395,2.359c-2.006,0-3.658-0.914-4.483-2.005c-0.974-1.209-0.974-3.274-0.974-4.012v-9.261H20.088z"/>
<path d="M37.936,40.954l0.118,2.124c1.357-2.389,3.834-2.418,4.542-2.418c3.864,0,6.194,2.891,6.194,7.433
	c0,4.218-2.183,7.964-6.489,7.964c-2.684,0-3.775-1.416-4.159-1.917v7.433h-4.454V40.954H37.936z M44.366,48.269
	c0-1.77-0.442-4.808-3.008-4.808c-1.416,0-3.421,1.062-3.421,5.073c0,0.885,0.029,4.66,3.245,4.66
	C43.245,53.194,44.366,51.218,44.366,48.269z"/>
<path d="M55.371,49.508c0,0.973,0,3.982,3.038,3.982c1.091,0,2.183-0.413,2.595-2.065h3.982c-0.059,0.708-0.207,1.976-1.416,3.245
	c-1.091,1.15-3.038,1.74-5.221,1.74c-1.269,0-3.687-0.236-5.25-1.858c-1.356-1.416-1.917-3.421-1.917-5.811
	c0-2.418,0.59-5.309,3.097-7.049c1.15-0.767,2.566-1.239,4.188-1.239c2.124,0,4.661,0.826,6.017,3.599
	c1.003,2.035,0.944,4.218,0.885,5.457H55.371z M60.916,46.765c0-0.678-0.059-3.333-2.596-3.333c-1.917,0-2.713,1.593-2.802,3.333
	H60.916z"/>
<path d="M68.262,44.611c0-0.708-0.118-2.861-0.206-3.716h4.099l0.089,2.861c0.561-1.268,1.534-3.067,5.073-2.89v3.923
	c-4.424-0.413-4.689,1.858-4.689,3.716v7.344h-4.366V44.611z"/>
<path d="M78.676,34.554h4.336v8.436c0.502-0.708,1.593-2.242,4.307-2.242c2.212,0,3.628,1.091,4.335,2.006
	c0.531,0.737,0.974,2.094,0.974,4.041v9.055h-4.336v-8.908c0-0.855,0-3.244-2.447-3.244c-1.239,0-2.803,0.708-2.803,3.038
	l0.029,9.114h-4.395V34.554z"/>
<path d="M118.848,51.543c0.06,0.944,0.649,2.035,2.478,2.035c1.563,0,2.301-0.885,2.301-1.77c0-0.678-0.354-1.209-2.064-1.681
	l-2.714-0.737c-1.209-0.354-3.775-1.091-3.775-4.129c0-2.891,2.654-4.66,6.519-4.66c3.067,0,5.545,1.416,5.663,4.395h-3.981
	c-0.118-1.651-1.445-1.77-2.124-1.77c-1.18,0-2.064,0.561-2.064,1.475c0,1.003,0.737,1.209,2.035,1.563L123.803,47
	c2.714,0.737,3.982,2.124,3.982,4.159c0,2.566-2.213,5.132-6.843,5.132c-1.918,0-3.746-0.413-5.104-1.829
	c-0.973-1.032-1.062-2.212-1.091-2.92H118.848z"/>
<path d="M139.32,55.643c-1.416,0.383-2.685,0.472-3.393,0.472c-4.395,0-4.395-2.773-4.395-4.012v-8.17h-2.861v-2.891h2.861v-2.92
	l4.336-1.593v4.513h3.539v2.891h-3.539v6.725c0.029,1.357,0.029,2.212,1.976,2.212c0.649,0,0.944-0.029,1.476-0.088V55.643z"/>
<path fill-rule="evenodd" clip-rule="evenodd" fill="#F33739" d="M43.468,12.888c0,0.928-0.747,1.674-1.674,1.674
	s-1.674-0.747-1.674-1.674c0-0.927,0.721-1.674,1.674-1.674C42.747,11.24,43.468,11.986,43.468,12.888L43.468,12.888z
	 M36.565,16.263c0,0.154,0,0.412,0,0.412s-0.798-1.031-2.499-1.031c-2.808,0-4.997,2.138-4.997,5.101c0,2.936,2.163,5.1,4.997,5.1
	c1.726,0,2.499-1.057,2.499-1.057v0.438c0,0.206,0.154,0.361,0.361,0.361h2.086v-9.685c0,0-1.906,0-2.086,0
	C36.719,15.902,36.565,16.083,36.565,16.263L36.565,16.263z M36.565,22.471c-0.386,0.566-1.16,1.056-2.086,1.056
	c-1.648,0-2.911-1.031-2.911-2.782c0-1.752,1.262-2.782,2.911-2.782c0.901,0,1.726,0.515,2.086,1.056V22.471L36.565,22.471z
	 M40.557,15.902h2.474v9.685h-2.474V15.902L40.557,15.902z M77.495,15.644c-1.7,0-2.498,1.031-2.498,1.031V11.24h-2.473v14.348
	c0,0,1.906,0,2.086,0c0.206,0,0.36-0.181,0.36-0.361v-0.438l0,0c0,0,0.798,1.057,2.499,1.057c2.807,0,4.997-2.164,4.997-5.1
	C82.467,17.808,80.276,15.644,77.495,15.644L77.495,15.644z M77.083,23.501c-0.953,0-1.699-0.489-2.086-1.056v-3.452
	c0.387-0.516,1.211-1.056,2.086-1.056c1.648,0,2.912,1.03,2.912,2.781C79.995,22.471,78.731,23.501,77.083,23.501L77.083,23.501z
	 M71.235,19.843v5.771h-2.473v-5.487c0-1.597-0.515-2.241-1.906-2.241c-0.748,0-1.52,0.386-2.009,0.953v6.749h-2.473v-9.685h1.958
	c0.206,0,0.36,0.18,0.36,0.36v0.412c0.722-0.747,1.675-1.031,2.627-1.031c1.083,0,1.983,0.31,2.705,0.928
	C70.901,17.293,71.235,18.22,71.235,19.843L71.235,19.843z M56.374,15.644c-1.701,0-2.499,1.031-2.499,1.031V11.24h-2.473v14.348
	c0,0,1.906,0,2.086,0c0.206,0,0.36-0.181,0.36-0.361v-0.438l0,0c0,0,0.799,1.057,2.5,1.057c2.807,0,4.997-2.164,4.997-5.1
	C61.37,17.808,59.18,15.644,56.374,15.644L56.374,15.644z M55.961,23.501c-0.953,0-1.7-0.489-2.086-1.056v-3.452
	c0.386-0.516,1.21-1.056,2.086-1.056c1.648,0,2.911,1.03,2.911,2.781C58.872,22.471,57.609,23.501,55.961,23.501L55.961,23.501z
	 M49.264,15.644c0.747,0,1.134,0.129,1.134,0.129v2.292c0,0-2.061-0.695-3.349,0.773v6.775h-2.473v-9.711c0,0,1.906,0,2.086,0
	c0.206,0,0.36,0.18,0.36,0.36v0.412C47.486,16.134,48.491,15.644,49.264,15.644L49.264,15.644z M23.583,24.711
	c-0.129-0.309-0.258-0.644-0.387-0.927c-0.206-0.464-0.412-0.901-0.592-1.313l-0.026-0.026c-1.777-3.864-3.683-7.779-5.692-11.643
	l-0.077-0.154c-0.207-0.387-0.412-0.799-0.618-1.211c-0.258-0.463-0.515-0.953-0.927-1.417c-0.824-1.03-2.009-1.597-3.271-1.597
	c-1.288,0-2.447,0.567-3.297,1.545C8.308,8.433,8.024,8.921,7.767,9.385c-0.206,0.412-0.412,0.824-0.618,1.211L7.071,10.75
	c-1.983,3.864-3.915,7.779-5.692,11.643l-0.026,0.052c-0.18,0.412-0.386,0.85-0.592,1.313c-0.129,0.283-0.257,0.593-0.386,0.927
	c-0.335,0.953-0.438,1.855-0.31,2.782c0.283,1.932,1.571,3.555,3.349,4.277c0.67,0.283,1.365,0.412,2.086,0.412
	c0.207,0,0.464-0.025,0.67-0.052c0.85-0.103,1.726-0.387,2.576-0.875c1.056-0.592,2.061-1.442,3.194-2.679
	c1.133,1.236,2.164,2.086,3.194,2.679c0.85,0.489,1.726,0.772,2.576,0.875c0.206,0.026,0.464,0.052,0.67,0.052
	c0.721,0,1.442-0.129,2.086-0.412c1.803-0.722,3.065-2.37,3.349-4.277C24.021,26.566,23.917,25.665,23.583,24.711L23.583,24.711z
	 M11.965,26.05c-1.391-1.751-2.292-3.399-2.602-4.791c-0.129-0.593-0.155-1.107-0.077-1.572c0.051-0.412,0.206-0.772,0.412-1.081
	c0.489-0.695,1.313-1.134,2.267-1.134s1.803,0.412,2.267,1.134c0.207,0.309,0.361,0.669,0.413,1.081
	c0.077,0.464,0.051,1.005-0.077,1.572C14.258,22.625,13.356,24.274,11.965,26.05L11.965,26.05z M22.243,27.261
	c-0.18,1.34-1.082,2.5-2.344,3.014c-0.618,0.258-1.288,0.335-1.958,0.258c-0.644-0.077-1.288-0.284-1.958-0.67
	c-0.927-0.516-1.854-1.313-2.936-2.499c1.7-2.086,2.73-3.992,3.117-5.692c0.181-0.799,0.206-1.52,0.129-2.19
	c-0.103-0.644-0.335-1.237-0.696-1.751c-0.798-1.159-2.137-1.829-3.632-1.829c-1.494,0-2.833,0.695-3.632,1.829
	c-0.36,0.515-0.592,1.107-0.695,1.751c-0.103,0.67-0.078,1.417,0.128,2.19c0.386,1.7,1.442,3.632,3.117,5.718
	c-1.056,1.185-2.009,1.983-2.937,2.499c-0.669,0.386-1.313,0.592-1.957,0.669c-0.696,0.078-1.366-0.025-1.958-0.258
	c-1.262-0.515-2.164-1.674-2.344-3.013C1.61,26.644,1.662,26,1.92,25.278c0.077-0.257,0.206-0.515,0.334-0.824
	c0.18-0.412,0.387-0.85,0.592-1.288l0.026-0.051c1.777-3.838,3.683-7.753,5.667-11.566l0.078-0.154
	c0.206-0.387,0.412-0.799,0.618-1.186c0.206-0.412,0.438-0.798,0.721-1.133c0.542-0.619,1.262-0.954,2.061-0.954
	s1.52,0.335,2.061,0.954c0.283,0.335,0.515,0.721,0.721,1.133c0.207,0.387,0.412,0.798,0.619,1.186l0.077,0.154
	c1.958,3.838,3.864,7.753,5.642,11.591v0.026c0.206,0.412,0.386,0.876,0.592,1.288c0.129,0.309,0.257,0.567,0.335,0.824
	C22.269,25.948,22.346,26.592,22.243,27.261L22.243,27.261z"/>
<circle fill="#FCAA07" cx="104.006" cy="48.593" r="9.125"/>
<polygon fill="#F33739" points="87.72,25.895 87.72,0.048 120.291,0.048 120.291,25.879 104.006,38.53 "/>
<polygon fill="#FED665" points="87.689,0 120.321,0 104.005,12.748 "/>
<polygon fill="#FCAA07" points="120.291,0 120.291,25.553 104.006,12.776 "/>
<path d="M34.722,63.266h2.132v1.738h-2.132V63.266z M34.789,66.18h1.997v6.827h-1.997V66.18z"/>
<path d="M38.567,67.407c0-0.025,0-0.769-0.042-1.241h1.916l0.055,1.026c0.188-0.31,0.729-1.188,2.212-1.188
	c1.336,0,1.903,0.81,2.08,1.283c0.147,0.417,0.188,0.768,0.188,2.036v3.684h-2.038V68.77c0-0.281,0-0.525-0.107-0.742
	c-0.148-0.297-0.459-0.581-0.972-0.581c-0.432,0-0.822,0.203-1.038,0.528c-0.122,0.175-0.243,0.514-0.243,1.039v3.993h-2.01V67.407z
	"/>
<path d="M50.56,63.28h2.092v4.195l3.266-4.224h2.442l-3.576,4.372l3.887,5.384h-2.605l-3.413-4.964v4.964H50.56V63.28z"/>
<path d="M60.935,70.108c0,0.443,0,1.819,1.39,1.819c0.501,0,1-0.189,1.188-0.942h1.821c-0.027,0.323-0.094,0.902-0.648,1.484
	c-0.499,0.523-1.39,0.795-2.388,0.795c-0.58,0-1.686-0.108-2.401-0.851c-0.622-0.647-0.877-1.564-0.877-2.659
	c0-1.105,0.27-2.429,1.417-3.224c0.526-0.351,1.174-0.566,1.917-0.566c0.971,0,2.131,0.378,2.752,1.645
	c0.459,0.933,0.432,1.931,0.405,2.499H60.935z M63.473,68.852c0-0.311-0.027-1.526-1.188-1.526c-0.878,0-1.241,0.729-1.282,1.526
	H63.473z"/>
<path d="M66.832,63.251h1.997v9.756h-1.997V63.251z"/>
<path d="M73.792,66.032c2.469,0,3.535,1.673,3.535,3.575c0,1.916-1.105,3.644-3.576,3.644c-1.942,0-3.481-1.2-3.481-3.588
	C70.27,68.014,71.105,66.032,73.792,66.032z M73.821,71.861c0.874,0,1.468-0.527,1.468-2.335c0-0.904-0.175-2.159-1.497-2.159
	c-1.457,0-1.469,1.687-1.469,2.308C72.323,71.199,72.835,71.861,73.821,71.861z"/>
<path d="M79.864,66.193l1.254,5.141l1.442-5.141h2.202l1.43,5.141l1.335-5.141h1.984l-2.335,6.814h-2.173l-1.402-5.047l-1.431,5.047
	h-2.199l-2.225-6.814H79.864z"/>
<path d="M90.577,67.407c0-0.025,0-0.769-0.042-1.241h1.915l0.055,1.026c0.188-0.31,0.728-1.188,2.214-1.188
	c1.334,0,1.9,0.81,2.077,1.283c0.149,0.417,0.188,0.768,0.188,2.036v3.684h-2.035V68.77c0-0.281,0-0.525-0.11-0.742
	c-0.146-0.297-0.458-0.581-0.972-0.581c-0.429,0-0.821,0.203-1.038,0.528c-0.12,0.175-0.243,0.514-0.243,1.039v3.993h-2.008V67.407z
	"/>
<path d="M102.88,73.007c-0.066-0.419-0.066-0.729-0.066-0.932c-0.757,1.093-1.663,1.093-2.038,1.093c-0.985,0-1.432-0.282-1.7-0.539
	c-0.404-0.404-0.595-0.959-0.595-1.497c0-0.541,0.19-1.538,1.445-2.118c0.835-0.377,2.035-0.377,2.696-0.377
	c0-0.447-0.012-0.662-0.093-0.906c-0.176-0.499-0.701-0.564-0.892-0.564c-0.284,0-0.579,0.121-0.754,0.376
	c-0.149,0.229-0.149,0.443-0.149,0.607h-1.957c0.015-0.364,0.054-1.092,0.771-1.604c0.619-0.445,1.413-0.554,2.063-0.554
	c0.564,0,1.755,0.094,2.428,0.876c0.459,0.555,0.473,1.364,0.473,1.674l0.013,2.74c0,0.579,0.039,1.157,0.161,1.726H102.88z
	 M100.423,70.903c0,0.459,0.312,0.971,0.973,0.971c0.362,0,0.661-0.176,0.85-0.392c0.35-0.432,0.377-0.957,0.377-1.687
	C101.342,69.689,100.423,70.092,100.423,70.903z"/>
</svg>
