<?xml version="1.0" encoding="utf-8"?>
<!-- Generator: Adobe Illustrator 15.0.0, SVG Export Plug-In  -->
<!DOCTYPE svg PUBLIC "-//W3C//DTD SVG 1.1//EN" "http://www.w3.org/Graphics/SVG/1.1/DTD/svg11.dtd" [
	<!ENTITY ns_flows "http://ns.adobe.com/Flows/1.0/">
]>
<svg version="1.1"
	 xmlns="http://www.w3.org/2000/svg" xmlns:xlink="http://www.w3.org/1999/xlink" xmlns:a="http://ns.adobe.com/AdobeSVGViewerExtensions/3.0/"
	 x="0px" y="0px" width="612px" height="137px" viewBox="-9.529 -13.684 612 137" enable-background="new -9.529 -13.684 612 137"
	 xml:space="preserve">
<defs>
</defs>
<polygon points="149.731,35.361 149.731,61.82 180.327,61.82 180.327,35.361 188.58,35.361 188.58,98.604 180.327,98.604 
	180.327,68.951 149.731,68.951 149.731,98.604 141.568,98.604 141.568,35.361 "/>
<path d="M241.362,75.523c0,16.791-11.637,24.112-22.611,24.112c-12.292,0-21.773-9.009-21.773-23.363
	c0-15.201,9.949-24.113,22.521-24.113C232.544,52.16,241.362,61.63,241.362,75.523 M205.332,75.991c0,9.945,5.723,17.45,13.79,17.45
	c7.886,0,13.797-7.411,13.797-17.641c0-7.695-3.848-17.45-13.603-17.45C209.554,58.351,205.332,67.356,205.332,75.991"/>
<path d="M249.573,65.481c0-4.694-0.093-8.542-0.374-12.292h7.228l0.371,7.318h0.281c2.538-4.319,6.756-8.351,14.265-8.351
	c6.191,0,10.888,3.754,12.857,9.099h0.187c1.407-2.53,3.193-4.502,5.068-5.91c2.721-2.066,5.72-3.189,10.039-3.189
	c6.008,0,14.924,3.941,14.924,19.704v26.747h-8.073V72.893c0-8.726-3.189-13.98-9.852-13.98c-4.694,0-8.354,3.474-9.758,7.505
	c-0.374,1.127-0.659,2.631-0.659,4.132v28.058h-8.066V71.392c0-7.225-3.192-12.479-9.481-12.479c-5.162,0-8.912,4.129-10.229,8.257
	c-0.468,1.221-0.655,2.628-0.655,4.035v27.402h-8.07V65.481z"/>
<path d="M330.456,76.974c0.19,11.389,7.469,16.079,15.892,16.079c6.029,0,9.668-1.051,12.821-2.394l1.439,6.029
	c-2.97,1.343-8.041,2.966-15.413,2.966c-14.261,0-22.777-9.471-22.777-23.447c0-13.973,8.229-24.98,21.727-24.98
	c15.121,0,19.142,13.304,19.142,21.82c0,1.725-0.19,3.063-0.288,3.927H330.456z M355.151,70.941
	c0.098-5.359-2.199-13.688-11.676-13.688c-8.517,0-12.253,7.851-12.923,13.688H355.151z"/>
<path fill="#046CB6" d="M382.212,78.313l-6.698,20.29H366.9l21.917-64.51h10.053l22.015,64.51h-8.905l-6.893-20.29H382.212z
	 M403.366,71.806l-6.317-18.57c-1.433-4.211-2.394-8.042-3.351-11.774h-0.19c-0.954,3.83-2.009,7.753-3.251,11.677l-6.32,18.667
	H403.366z"/>
<path fill="#046CB6" d="M429.188,52.278l6.123,23.544c1.343,5.169,2.584,9.956,3.448,14.739h0.288
	c1.051-4.687,2.584-9.664,4.117-14.739l7.56-23.544h7.083l7.178,23.162c1.724,5.551,3.063,10.435,4.117,15.121h0.284
	c0.768-4.687,2.013-9.57,3.539-15.027l6.604-23.256h8.329l-14.934,46.328h-7.652l-7.088-22.111
	c-1.623-5.169-2.966-9.765-4.11-15.218h-0.194c-1.148,5.55-2.581,10.334-4.211,15.312l-7.466,22.018h-7.656l-13.973-46.328H429.188z
	"/>
<path fill="#046CB6" d="M526.219,87.502c0,4.018,0.19,7.944,0.767,11.102h-7.659l-0.666-5.839h-0.288
	c-2.585,3.64-7.566,6.894-14.171,6.894c-9.377,0-14.164-6.605-14.164-13.304c0-11.202,9.956-17.324,27.853-17.23v-0.958
	c0-3.826-1.051-10.719-10.524-10.719c-4.309,0-8.809,1.342-12.065,3.448l-1.911-5.558c3.829-2.487,9.38-4.111,15.218-4.111
	c14.164,0,17.612,9.668,17.612,18.948V87.502z M518.084,74.962c-9.189-0.19-19.624,1.439-19.624,10.435
	c0,5.457,3.639,8.038,7.947,8.038c6.029,0,9.855-3.826,11.198-7.754c0.284-0.86,0.479-1.817,0.479-2.674V74.962z"/>
<path fill="#046CB6" d="M539.882,52.278l10.147,27.374c1.051,3.063,2.199,6.702,2.966,9.477h0.194
	c0.856-2.774,1.814-6.316,2.966-9.668l9.189-27.183h8.901L561.608,85.3c-6.029,15.888-10.146,22.756-15.888,27.733
	c-4.118,3.636-8.232,5.071-10.334,5.453l-2.109-7.084c2.109-0.669,4.885-2.008,7.371-4.114c2.297-1.821,5.169-5.075,7.084-9.38
	c0.378-0.863,0.666-1.533,0.666-2.012s-0.188-1.145-0.572-2.199l-17.133-41.419H539.882z"/>
<path fill="#FFFFFF" d="M40.863,6.986L16.142,38.345l-0.137,40.091l22.835-2.671c0,0,4.33-0.709,4.618,3.384
	c0.32,4.589-3.754,4.561-3.754,4.561l-23.699,3.196l-0.05,8.566l50.781,9.164l-0.047-66.291L40.863,6.986z M52.079,65.243
	c-2.538,3.312-6.191,5.547-10.363,5.763c-0.223,0.015-0.446,0.019-0.669,0.019c-4.208,0-8.041-2.073-10.82-5.313
	c-2.786-3.25-4.593-7.691-4.856-12.641c-0.018-0.411-0.029-0.821-0.029-1.224c0-4.816,1.501-9.24,4.039-12.555
	c2.542-3.315,6.195-5.547,10.367-5.766c0.22-0.007,0.45-0.018,0.666-0.018c4.211,0,8.044,2.073,10.823,5.316
	c2.79,3.243,4.589,7.688,4.852,12.637c0.021,0.414,0.036,0.821,0.036,1.228C56.125,57.505,54.627,61.925,52.079,65.243"/>
<polygon fill="#FFFFFF" points="88.786,45.018 76.89,45.576 76.807,61.792 88.814,60.849 "/>
<polygon fill="#FFFFFF" points="76.843,66.863 76.796,83.133 88.887,81.974 88.8,65.931 "/>
<path fill="#FFFFFF" d="M48.897,40.832c-2.318-2.692-5.31-4.244-8.484-4.244c-0.169,0-0.338,0.003-0.508,0.014
	c-3.153,0.169-5.971,1.829-8.081,4.561c-2.091,2.729-3.409,6.504-3.409,10.683c0,0.349,0.014,0.702,0.032,1.062
	c0.223,4.305,1.803,8.105,4.114,10.795c2.318,2.688,5.313,4.243,8.484,4.243c0.169,0,0.342-0.007,0.511-0.018
	c3.153-0.169,5.971-1.832,8.077-4.557c2.095-2.729,3.409-6.508,3.409-10.684c0-0.353-0.011-0.702-0.029-1.062
	C52.795,47.325,51.215,43.517,48.897,40.832 M31.987,52.818c-0.332-6.357,3.042-11.706,7.548-12.022
	c-2.653,1.764-4.391,6.418-4.107,11.785c0.281,5.435,2.541,9.923,5.417,11.349l0.004,0.064
	C36.292,64.229,32.332,59.229,31.987,52.818"/>
<polygon fill="#FFFFFF" points="93.706,44.773 93.71,60.528 103.633,59.902 103.612,44.46 "/>
<polygon fill="#FFFFFF" points="93.706,81.487 103.608,80.548 103.608,64.887 93.706,65.604 "/>
<path fill="#046CB6" d="M88.016,0H33.045L0.603,38.294h11.436v40.771l-8.718,1.134c0,0-4.201,0.784-3.153,5.252
	c0.875,2.8,4.24,2.67,4.24,2.67l7.631-0.953v11.298l54.395,9.838l43.24-9.751l-0.076-60.19h12.724L88.016,0z M76.89,45.576
	l11.9-0.558l0.029,15.831l-12.008,0.943L76.89,45.576z M15.951,95.472l0.054-8.57L39.7,83.709c0,0,4.082,0.028,3.754-4.558
	c-0.281-4.096-4.615-3.383-4.615-3.383l-22.835,2.663l0.141-40.09L40.866,6.986l25.826,31.355l0.04,66.298L15.951,95.472z
	 M76.8,83.133l0.043-16.27l11.961-0.933l0.079,16.043L76.8,83.133z M103.608,80.548l-9.898,0.939v-15.88l9.898-0.721V80.548z
	 M93.713,60.524L93.71,44.773l9.902-0.31l0.021,15.435L93.713,60.524z"/>
<path fill="#046CB6" d="M51.236,38.824c-2.782-3.243-6.612-5.313-10.823-5.313c-0.22,0-0.443,0.003-0.666,0.015
	c-4.172,0.219-7.825,2.447-10.363,5.766c-2.542,3.319-4.042,7.739-4.042,12.555c0,0.403,0.011,0.813,0.029,1.224
	c0.263,4.949,2.07,9.391,4.856,12.641c2.779,3.24,6.612,5.316,10.823,5.316c0.22,0,0.443-0.007,0.666-0.021
	c4.172-0.216,7.825-2.451,10.363-5.763c2.548-3.318,4.046-7.735,4.046-12.555c0-0.403-0.011-0.813-0.036-1.228
	C55.826,46.508,54.026,42.066,51.236,38.824 M49.635,63.372c-2.102,2.731-4.924,4.388-8.077,4.557
	c-0.169,0.011-0.338,0.018-0.508,0.018c-3.174,0-6.169-1.555-8.491-4.243c-2.311-2.689-3.888-6.49-4.107-10.795
	c-0.022-0.36-0.036-0.713-0.036-1.062c0-4.179,1.317-7.955,3.412-10.683c2.102-2.732,4.928-4.391,8.077-4.561
	c0.169-0.007,0.338-0.014,0.508-0.014c3.174,0,6.169,1.551,8.487,4.244c2.318,2.685,3.895,6.493,4.11,10.795
	c0.025,0.36,0.036,0.709,0.036,1.062C53.047,56.864,51.729,60.644,49.635,63.372"/>
<path fill="#046CB6" d="M35.424,52.584c-0.277-5.37,1.458-10.024,4.111-11.788c-4.506,0.317-7.879,5.666-7.548,12.022
	c0.342,6.407,4.308,11.41,8.862,11.176l-0.004-0.064C37.973,62.504,35.708,58.016,35.424,52.584"/>
<path fill="#046CB6" d="M587.341,52.552c4.15,0,7.368,3.222,7.368,7.235c0,4.107-3.218,7.282-7.407,7.282
	c-4.147,0-7.455-3.175-7.455-7.282c0-4.013,3.308-7.235,7.455-7.235H587.341z M587.255,54.01c-3.175,0-5.555,2.606-5.555,5.777
	c0,3.221,2.38,5.781,5.641,5.781c3.179,0.043,5.519-2.56,5.519-5.781c0-3.171-2.34-5.777-5.558-5.777H587.255z M586.153,63.541
	h-1.674v-7.192c0.658-0.133,1.584-0.266,2.775-0.266c1.371,0,1.986,0.223,2.512,0.576c0.403,0.31,0.709,0.882,0.709,1.541
	c0,0.842-0.618,1.461-1.501,1.724v0.086c0.706,0.223,1.105,0.796,1.329,1.764c0.216,1.105,0.349,1.544,0.525,1.768h-1.811
	c-0.22-0.267-0.353-0.882-0.572-1.721c-0.13-0.795-0.572-1.148-1.498-1.148h-0.795V63.541z M586.196,59.484h0.796
	c0.925,0,1.674-0.313,1.674-1.058c0-0.666-0.482-1.109-1.545-1.109c-0.438,0-0.748,0.047-0.925,0.09V59.484z"/>
</svg>
