<?xml version="1.0" encoding="utf-8"?>
<!-- Generator: Adobe Illustrator 15.0.0, SVG Export Plug-In  -->
<!DOCTYPE svg PUBLIC "-//W3C//DTD SVG 1.1//EN" "http://www.w3.org/Graphics/SVG/1.1/DTD/svg11.dtd" [
	<!ENTITY ns_flows "http://ns.adobe.com/Flows/1.0/">
]>
<svg version="1.1"
	 xmlns="http://www.w3.org/2000/svg" xmlns:xlink="http://www.w3.org/1999/xlink" xmlns:a="http://ns.adobe.com/AdobeSVGViewerExtensions/3.0/"
	 x="0px" y="0px" width="113px" height="57px" viewBox="-14.173 -14.696 113 57" enable-background="new -14.173 -14.696 113 57"
	 xml:space="preserve">
<defs>
</defs>
<path fill="#2D63AF" d="M75.063,8.823v0.041c5.274,0.443,6.823,4.189,6.748,6.366c-0.122,6.306-5.008,11.383-12.89,12.003v0.035
	c8.659-0.52,13.729-4.996,13.839-11.41C82.747,13.498,81.027,9.171,75.063,8.823z"/>
<path fill="#2D63AF" d="M68.922,27.159c6.665-0.447,11.89-5.904,12.044-12.584c0-1.992-1.365-5.268-5.95-5.636v0.035
	c3.794,0.402,5.132,3.166,5.104,4.974c-0.109,6.081-4.824,12.522-11.157,13.171L68.922,27.159z"/>
<path fill="#2D63AF" d="M68.976,27.042c5.604-0.579,10.113-7.785,10.236-13.756c0-1.617-1.03-3.876-4.23-4.237V9.09
	c2.518,0.382,3.412,2.135,3.412,3.575c-0.103,5.848-4.497,13.695-9.322,14.33L68.976,27.042z"/>
<path fill="#2D63AF" d="M69.052,26.886v0.048c4.094-0.594,8.318-9.198,8.42-14.931c0.059-1.478-1.069-2.733-2.545-2.832v0.041
	c1.037,0.175,1.763,1.123,1.658,2.17C76.428,16.984,72.333,26.278,69.052,26.886z"/>
<path fill="#2D63AF" d="M66.479,24.661c0.096-5.391,4.347-14.862,7.507-15.504V9.109c-3.958,0.587-8.332,9.343-8.435,14.897
	c-0.111,1.477,0.996,2.764,2.474,2.874c0.025,0.003,0.052,0.004,0.078,0.005v-0.041c-1.045-0.146-1.773-1.111-1.628-2.156
	C66.476,24.68,66.478,24.671,66.479,24.661z"/>
<path fill="#2D63AF" d="M64.738,23.378c0.103-5.697,4.682-13.695,9.335-14.329V9.007c-5.459,0.58-10.119,7.895-10.235,13.716
	c0,1.624,1.064,4.025,4.23,4.285v-0.041C65.599,26.647,64.711,24.818,64.738,23.378z"/>
<path fill="#4486C6" d="M62.999,22.096c0.102-5.971,4.967-12.522,11.129-13.17V8.885c-6.599,0.555-11.754,5.933-12.03,12.549
	c0,1.993,1.364,5.377,5.957,5.678V27.07C64.098,26.716,62.972,23.884,62.999,22.096z"/>
<path fill="#4486C6" d="M61.259,20.813c0.108-6.271,5.514-11.402,12.924-11.996V8.775c-8.298,0.512-13.729,4.988-13.839,11.376
	c-0.048,2.36,1.679,6.728,7.636,7.068C62.78,26.811,61.224,22.989,61.259,20.813z"/>
<path fill="#2D63AF" d="M57.041,8.912c-2.859-0.39-6.312,1.29-8.257,4.237l0.034,0.048c1.843-2.647,4.954-4.224,7.507-3.869
	c1.719,0.232,2.899,1.535,2.661,4.094c-0.607,6.517-6.101,13.838-14.89,13.819v0.047c8.137,0.313,15.118-5.746,15.954-13.846
	C60.289,10.618,58.979,9.178,57.041,8.912z"/>
<path fill="#2D63AF" d="M57.956,13.395c0.211-2.245-0.792-3.412-2.368-3.624c-2.272-0.307-5.036,1.078-6.708,3.515l0.034,0.041
	c1.535-2.102,3.992-3.412,5.964-3.14c1.365,0.185,2.266,1.208,2.047,3.188c-0.525,5.608-5.875,13.319-12.801,13.75
	C51.862,27.118,57.382,19.509,57.956,13.395z"/>
<path fill="#2D63AF" d="M44.22,26.988v0.041c6.448-0.771,11.225-8.604,11.736-13.682c0.15-1.665-0.614-2.553-1.754-2.73
	c-1.719-0.239-3.861,0.921-5.186,2.777v0.042c1.262-1.631,3.022-2.601,4.415-2.409c0.982,0.136,1.583,0.88,1.453,2.238
	C54.455,17.892,50.067,25.767,44.22,26.988z"/>
<path fill="#2D63AF" d="M44.294,26.831v0.062c4.777-1.283,9.206-9.554,9.554-13.647c0.096-1.044-0.368-1.658-1.133-1.761
	c-1.14-0.157-2.587,0.683-3.644,2.047v0.041c0.88-1.051,2.047-1.795,2.899-1.679c0.553,0.075,0.915,0.56,0.84,1.331
	C52.544,16.8,48.45,25.058,44.294,26.831z"/>
<path fill="#2D63AF" d="M43.543,22.185c-0.507,1.113-0.87,2.287-1.078,3.493c0.014,0.464,0.274,0.885,0.682,1.106
	c0.066,0.032,0.135,0.06,0.205,0.081v-0.062c-0.197-0.19-0.284-0.468-0.232-0.736c0.282-1.225,0.696-2.414,1.235-3.549L53.227,0
	l-1.249,0.246c0.068,0.287-2.326,6.175-2.422,6.469L43.543,22.185z"/>
<path fill="#2D63AF" d="M41.913,21.481c-0.451,1.08-0.776,2.209-0.969,3.364c-0.109,1.235,0.969,1.903,2.416,2.122v-0.041
	c-0.989-0.178-1.754-0.683-1.665-1.638c0.228-1.17,0.575-2.313,1.037-3.412l5.909-15.203c0.144-0.403,2.389-5.835,2.048-6.183
	l-1.215,0.245v0.068c0.048,1.324-1.488,4.948-1.802,5.801L41.913,21.481z"/>
<path fill="#2D63AF" d="M45.829,6.53l-5.567,14.255c-0.445,1.005-0.762,2.062-0.942,3.146c-0.15,1.74,1.276,2.941,3.944,3.126
	c-0.55-0.061-1.09-0.187-1.61-0.375c-1.009-0.245-1.675-1.208-1.549-2.239c0.192-1.133,0.527-2.238,0.996-3.289l5.678-14.589
	c0.286-0.771,1.91-4.456,1.521-5.582l-1.174,0.232v0.068C47.768,2.163,46.205,5.575,45.829,6.53z"/>
<path fill="#4486C6" d="M43.81,6.824l-5.145,13.265c-0.425,0.942-0.714,1.939-0.86,2.962c-0.185,2.177,1.706,3.958,5.459,4.095
	c-3.146-0.178-4.858-1.665-4.688-3.631c0.158-1.051,0.461-2.075,0.901-3.043l5.315-13.648c0.479-1.249,1.891-4.313,1.126-5.336
	L44.71,1.733v0.068C45.529,2.928,44.355,5.458,43.81,6.824z"/>
<path fill="#4486C6" d="M43.209,27.228c-4.238-0.186-6.374-2.252-6.142-4.654c0.126-0.96,0.389-1.897,0.778-2.784L42.752,7.11
	c0.614-1.583,1.761-3.972,0.86-5.152L42.5,2.19v0.068c0.949,1.064,0.068,2.812-0.58,4.579l-4.886,12.556
	c-0.394,0.864-0.649,1.785-0.757,2.729c-0.232,2.614,2.095,4.982,6.919,5.125L43.209,27.228z"/>
<path fill="#2D63AF" d="M37.627,11.246c-0.088-1.685-1.085-2.457-2.293-2.457c-2.197,0-4.094,1.733-5.288,4.094v-0.833
	c-0.096-1.836-1.365-3.262-3.624-3.262c-4.777,0-7.131,3.146-7.916,6.708h0.041c0.833-3.337,3.057-6.347,7.349-6.347
	c1.652-0.147,3.11,1.073,3.257,2.725c0.006,0.072,0.01,0.145,0.011,0.217c0.116,2.163-0.601,3.849-1.365,5.794l-3.48,9.096h0.928
	l3.48-9.021c0.232-0.621,0.451-1.201,0.649-1.76c0.682-1.434,1.535-2.9,1.979-2.9c0.328,0,0.43,0.279,0.451,0.532
	c0.004,1.357-0.352,2.692-1.03,3.869l0.041,0.041c1.059-1.194,1.69-2.707,1.794-4.3c0-0.47-0.231-0.805-0.682-0.805
	c-0.744,0-1.693,1.528-2.389,3.146c0.082-0.259,0.15-0.519,0.218-0.771c0.744-1.618,1.774-2.996,2.729-2.996
	c0.587,0,0.942,0.402,0.976,1.064c0.082,1.61-1.365,3.958-2.58,4.729l0.041,0.04c1.652-0.736,3.467-3.159,3.364-5.138
	c-0.048-0.88-0.512-1.365-1.249-1.365c-1.214,0-2.388,1.413-3.2,3.159c0-0.136,0.054-0.272,0.075-0.416
	c0.908-1.876,2.238-3.363,3.719-3.363c0.805,0,1.419,0.545,1.474,1.61c0.129,2.347-2.088,4.845-4.095,5.576l0.041,0.04
	c2.464-0.628,5.036-3.269,4.893-5.984c-0.068-1.282-0.798-1.903-1.747-1.903c-1.706,0.006-3.228,1.535-4.176,3.582v-0.334
	c1.085-2.197,2.798-3.863,4.777-3.863c1.064,0,1.945,0.683,2.047,2.17c0.163,3.119-2.73,5.759-5.678,6.421l0.041,0.034
	C34.625,17.558,37.812,14.732,37.627,11.246z"/>
<path fill="#2D63AF" d="M28.313,12.16c-0.026-1.508-1.269-2.708-2.776-2.682c-0.05,0-0.101,0.003-0.151,0.006
	c-3.808,0-5.999,2.832-6.77,6.012h0.048c0.846-2.962,2.784-5.644,6.189-5.644c1.299-0.121,2.449,0.834,2.569,2.133
	c0.007,0.071,0.01,0.143,0.011,0.215c0.095,1.794-0.751,3.773-1.427,5.575l-3.589,9.205h0.955l3.515-9.131
	C27.637,15.975,28.415,14.104,28.313,12.16z"/>
<path fill="#2D63AF" d="M26.613,12.235c0.005-1.131-0.907-2.052-2.038-2.057c-0.066,0-0.134,0.003-0.2,0.009
	c-2.989,0-4.817,2.58-5.609,5.316h0.041c0.84-2.545,2.559-4.947,5.043-4.947c0.963-0.068,1.798,0.657,1.866,1.619
	c0.002,0.036,0.004,0.071,0.004,0.107c0.075,1.426-0.908,3.74-1.556,5.357l-3.692,9.342h0.99l3.624-9.28
	C25.727,16.016,26.682,13.887,26.613,12.235z"/>
<path fill="#4486C6" d="M24.873,12.345c0.007-0.784-0.623-1.425-1.407-1.432c-0.045-0.001-0.09,0.001-0.135,0.005
	c-2.047,0-3.678,2.225-4.456,4.579h0.048c0.812-2.102,2.204-4.218,3.876-4.218c0.588-0.068,1.12,0.354,1.188,0.941
	c0.006,0.055,0.008,0.11,0.006,0.166c0.062,1.132-1.085,3.705-1.631,5.131l-3.794,9.465h0.948l3.726-9.39
	C23.884,16.091,24.941,13.647,24.873,12.345z"/>
<path fill="#4486C6" d="M23.154,12.453c0.039-0.432-0.279-0.813-0.71-0.852c-0.045-0.004-0.091-0.004-0.136,0
	c-1.208,0-2.511,1.904-3.296,3.883h0.048c0.791-1.761,2.013-3.521,2.729-3.521c0.293,0,0.484,0.15,0.505,0.519
	c0.041,0.771-1.242,3.665-1.761,4.913l-3.862,9.554h0.955l3.829-9.499C21.994,16.125,23.201,13.375,23.154,12.453z"/>
<path fill="#2D63AF" d="M12.72,20.554l0.615-1.29L11.253,8.646c-0.58-2.989,0.116-4.292,2.463-4.742V3.862h-2.17
	c-0.627,0.313-1.958,1.255-1.214,4.776L12.72,20.554z"/>
<path fill="#2D63AF" d="M11.492,23.119l0.607-1.283L9.369,8.577c-0.512-2.572-0.293-3.91,0.56-4.674V3.862H8.455
	c-0.45,0.962-0.587,1.924-0.068,4.47L11.492,23.119z"/>
<path fill="#2D63AF" d="M10.236,25.678l0.607-1.269L7.432,8.298C6.831,5.793,6.968,4.646,7.213,3.862H5.91
	C5.896,5.217,6.07,6.567,6.429,7.875L10.236,25.678z"/>
<path fill="#2D63AF" d="M4.716,3.862H3.181v0.041c0.682,0.832,0.887,1.85,1.433,4.094l4.094,18.991h0.921L5.534,7.937
	C5.181,6.596,4.907,5.235,4.716,3.862z"/>
<path fill="#4486C6" d="M1.645,3.862H0v0.041c1.501,0.594,2.238,1.733,2.832,4.401l4.047,18.677H7.8L3.726,8.188
	C3.023,4.927,2.286,4.326,1.645,3.862z"/>
<path fill="#2D63AF" d="M22.567,3.862c-1.938,1.132-3.091,3.228-5.507,8.42l0.062,0.034c2.791-5.227,4.381-7.308,7.984-8.393V3.862
	H22.567z"/>
<path fill="#4486C6" d="M16.924,12.181l0.061,0.041c2.293-5.398,2.893-6.906,3.829-8.318V3.862h-1.856v0.055
	C19.148,6.08,18.425,8.072,16.924,12.181z"/>
<path fill="#4486C6" d="M16.801,12.099l0.062,0.041c1.453-4.838,1.924-6.974,0.641-8.277h-1.808v0.041
	C17.742,4.626,18.166,6.694,16.801,12.099z"/>
<polygon fill="#2D63AF" points="83.252,10.071 83.252,10.993 83.115,10.993 83.115,10.071 82.72,10.071 82.72,9.942 83.661,9.942 
	83.661,10.071 "/>
<polygon fill="#2D63AF" points="84.821,10.993 84.821,10.099 84.493,10.979 84.337,10.979 84.043,10.099 84.043,10.993 
	83.913,10.993 83.954,9.942 84.193,9.942 84.467,10.822 84.78,9.942 84.999,9.942 85.04,10.993 "/>
</svg>
