<?xml version="1.0" encoding="utf-8"?>
<!-- Generator: Adobe Illustrator 15.0.0, SVG Export Plug-In  -->
<!DOCTYPE svg PUBLIC "-//W3C//DTD SVG 1.1//EN" "http://www.w3.org/Graphics/SVG/1.1/DTD/svg11.dtd" [
	<!ENTITY ns_flows "http://ns.adobe.com/Flows/1.0/">
]>
<svg version="1.1"
	 xmlns="http://www.w3.org/2000/svg" xmlns:xlink="http://www.w3.org/1999/xlink" xmlns:a="http://ns.adobe.com/AdobeSVGViewerExtensions/3.0/"
	 x="0px" y="0px" width="400px" height="400px" viewBox="-9.372 -146.983 400 400" enable-background="new -9.372 -146.983 400 400"
	 xml:space="preserve">
<defs>
</defs>
<path id="path5077_1_" sodipodi:nodetypes="ccccccc" inkscape:connector-curvature="0" fill="#F7B916" d="M56.054,77.164
	l28.363-48.069c-0.467-1.328-0.991-2.629-1.582-3.907L32.623,3.99L0.492,49.967c0.117,0.745,0.249,1.49,0.395,2.228L56.054,77.164z"
	/>
<path id="path5009_1_" inkscape:connector-curvature="0" fill="#1F3562" d="M180.134,82.915h-11.663
	c-0.046,0-0.082-0.012-0.113-0.051l-10.053-12.259l-10.055,12.259c-0.027,0.039-0.074,0.051-0.111,0.051h-9.336
	c-0.066,0-0.117-0.03-0.143-0.086c-0.028-0.042-0.013-0.104,0.022-0.15l14.807-18.177l-14.645-18.006
	c-0.035-0.05-0.035-0.113-0.017-0.167c0.024-0.034,0.078-0.084,0.124-0.084h11.672c0.035,0,0.089,0.027,0.111,0.073l8.812,10.918
	l8.976-10.929c0.026-0.035,0.069-0.062,0.111-0.062h9.514c0.054,0,0.113,0.05,0.131,0.084c0.028,0.054,0.015,0.117-0.019,0.167
	l-13.889,16.678l15.873,19.505c0.039,0.047,0.046,0.108,0.015,0.15C180.24,82.885,180.188,82.915,180.134,82.915"/>
<path id="path5013_1_" inkscape:connector-curvature="0" fill="#1F3562" d="M243.28,52.703c-5.161,0-8.693,3.131-9.71,8.591h17.582
	v-0.359C251.152,56.576,247.933,52.703,243.28,52.703 M260.207,66.881c-0.019,0.035-0.07,0.061-0.128,0.061h-26.694
	c0.556,6.213,4.592,9.757,11.131,9.757c4.023,0,8.293-1.379,14.332-4.587c0.098-0.054,0.22,0.039,0.22,0.15l-0.019,8.201
	c-0.013,0.073-0.039,0.115-0.081,0.128c-5.618,2.373-11.266,3.976-15.688,3.976c-11.494,0-19.841-8.366-19.841-19.906
	c0-11.527,8.347-19.905,19.841-19.905c10.482,0,17.225,7.064,17.225,16.774C260.504,63.101,260.221,66.76,260.207,66.881"/>
<path id="path5017_1_" inkscape:connector-curvature="0" fill="#1F3562" d="M314.447,38.674c-3.279,0-5.938-2.622-5.938-5.845
	c0-3.314,2.659-6.016,5.938-6.016c3.276,0,5.929,2.702,5.929,6.016C320.375,36.052,317.723,38.674,314.447,38.674 M309.643,82.916
	c-0.093,0-0.149-0.059-0.149-0.151V46.392c0-0.069,0.05-0.128,0.118-0.143h9.648c0.069,0.015,0.115,0.073,0.115,0.143v36.373
	c0,0.093-0.062,0.151-0.143,0.151H309.643z"/>
<path id="path5021_1_" inkscape:connector-curvature="0" fill="#1F3562" d="M197.785,77.439c-1.752,0-3.528-0.242-5.566-0.788
	l0.012-23.342c2.393-0.76,4.482-1.116,6.544-1.116c6.683,0,11.169,4.923,11.169,12.254
	C209.943,72.343,205.171,77.439,197.785,77.439 M200.398,44.766c-2.721,0-5.462,0.486-8.343,1.479h-9.6
	c-0.082,0-0.141,0.074-0.141,0.146v59.643c2.904-0.386,6.437-1.421,9.912-3.88l-0.008-18.143c2.354,0.341,4.313,0.556,6.196,0.556
	c13.146,0,21.651-7.872,21.651-20.061C220.066,52.886,211.969,44.766,200.398,44.766"/>
<path id="path5025_1_" inkscape:connector-curvature="0" fill="#1F3562" d="M292.088,74.421c-3.012,1.572-5.687,2.325-8.207,2.325
	c-5.954,0-9.521-4.201-9.521-11.247c0-8.139,4.552-13.413,11.594-13.413c1.943,0,3.838,0.471,6.135,1.509V74.421z M292.088,26.995
	v19.038c-2.817-0.815-5.297-1.186-7.794-1.186c-11.444,0-20.072,8.621-20.072,20.077c0,11.381,7.617,19.644,18.092,19.644
	c3.629,0,7.037-0.906,11.029-2.961l-0.016,3.293c2.638-0.509,5.665-1.567,8.656-3.687V23.099
	C299.053,23.485,295.577,24.47,292.088,26.995"/>
<path id="path5029_1_" inkscape:connector-curvature="0" fill="#1F3562" d="M352.781,74.346c-2.91,1.675-5.401,2.486-7.624,2.486
	c-6.374,0-10.185-4.193-10.185-11.259c0-8.02,4.49-13.408,11.179-13.408c1.801,0,3.962,0.684,6.63,2.092V74.346z M362.696,45.811
	c0-0.228-0.196-0.409-0.42-0.409l-7.787,0.015c-0.241,0-0.423,0.193-0.423,0.421v1.316h-0.196c-3.594-1.571-6.674-2.309-9.691-2.309
	c-10.782,0-19.242,8.949-19.242,20.4c0,11.575,7.567,19.323,18.829,19.323c3.001,0,6.874-0.2,10.479-4.362v4.679
	c2.561-0.541,5.572-1.62,8.438-3.683L362.696,45.811z"/>
<path id="path5033_1_" inkscape:connector-curvature="0" fill="#1F3562" d="M112.15,73.694l24.154-0.009
	c-0.363,2.699-1.278,5.865-3.371,9.08h-20.731h-4.12h-0.28c-3.073,0-5.605-2.382-5.907-5.396c-0.007-0.044-0.029-0.085-0.039-0.12
	V52.502V29.616c0.009-0.035,0.031-0.078,0.039-0.117c0.302-3.023,2.834-5.413,5.907-5.413c0.105,0,0.191,0.02,0.28,0.02
	l28.168-0.008c-0.367,2.695-1.278,5.935-3.372,9.143H112.15v12.96h20.516c0.089,0,0.152,0.07,0.152,0.143v8.996
	c0,0.069-0.063,0.139-0.152,0.139H112.15v18.207V73.694z"/>
<path id="path5037_1_" inkscape:connector-curvature="0" fill="#1F3562" d="M180.138,82.911h-11.664
	c-0.046,0-0.083-0.011-0.115-0.046l-10.047-12.262l-10.056,12.262c-0.028,0.035-0.078,0.046-0.117,0.046h-9.339
	c-0.058,0-0.104-0.026-0.135-0.084c-0.026-0.043-0.015-0.104,0.021-0.151l14.806-18.173l-14.637-18.011
	c-0.042-0.054-0.042-0.107-0.022-0.161c0.022-0.039,0.078-0.089,0.132-0.089h11.662c0.035,0,0.089,0.027,0.113,0.072l8.815,10.923
	l8.971-10.934c0.028-0.034,0.071-0.061,0.117-0.061h9.51c0.057,0,0.111,0.05,0.135,0.089c0.022,0.054,0.015,0.115-0.024,0.161
	l-13.887,16.679l15.871,19.505c0.042,0.047,0.052,0.108,0.021,0.151C180.238,82.885,180.191,82.911,180.138,82.911"/>
<path id="path5041_1_" inkscape:connector-curvature="0" fill="#1F3562" d="M243.28,52.7c-5.161,0-8.698,3.131-9.71,8.594h17.582
	v-0.359C251.152,56.572,247.936,52.7,243.28,52.7 M260.207,66.877c-0.019,0.035-0.07,0.063-0.128,0.063h-26.687
	c0.545,6.211,4.584,9.757,11.123,9.757c4.023,0,8.293-1.375,14.337-4.583c0.095-0.059,0.219,0.034,0.219,0.15l-0.019,8.196
	c-0.011,0.072-0.039,0.115-0.085,0.128c-5.612,2.374-11.263,3.979-15.688,3.979c-11.497,0-19.833-8.366-19.833-19.91
	c0-11.524,8.336-19.902,19.833-19.902c10.486,0,17.225,7.057,17.225,16.771C260.504,63.098,260.221,66.754,260.207,66.877"/>
<path id="path5045_1_" inkscape:connector-curvature="0" fill="#1F3562" d="M314.449,38.674c-3.277,0-5.942-2.625-5.942-5.849
	c0-3.314,2.665-6.017,5.942-6.017c3.274,0,5.931,2.703,5.931,6.017C320.379,36.049,317.723,38.674,314.449,38.674 M309.645,82.911
	c-0.093,0-0.149-0.054-0.149-0.146V46.389c0-0.071,0.046-0.128,0.116-0.139h9.647c0.07,0.011,0.12,0.068,0.12,0.139v36.376
	c0,0.093-0.062,0.146-0.143,0.146H309.645z"/>
<path id="path5049_1_" inkscape:connector-curvature="0" fill="#1F3562" d="M197.785,77.437c-1.748,0-3.525-0.238-5.566-0.787
	l0.015-23.339c2.394-0.769,4.483-1.12,6.545-1.12c6.679,0,11.169,4.926,11.169,12.257C209.947,72.341,205.175,77.437,197.785,77.437
	 M200.398,44.758c-2.721,0-5.458,0.491-8.343,1.479h-9.598c-0.083,0-0.137,0.073-0.137,0.151v59.642
	c2.899-0.386,6.435-1.424,9.906-3.881l-0.008-18.138c2.354,0.34,4.313,0.556,6.196,0.556c13.146,0,21.651-7.875,21.651-20.062
	C220.066,52.875,211.973,44.758,200.398,44.758"/>
<path id="path5053_1_" inkscape:connector-curvature="0" fill="#1F3562" d="M292.088,74.421c-3.004,1.567-5.683,2.325-8.207,2.325
	c-5.954,0-9.521-4.205-9.521-11.251c0-8.135,4.557-13.413,11.598-13.413c1.943,0,3.838,0.467,6.131,1.51V74.421z M292.088,26.987
	v19.042c-2.813-0.819-5.292-1.182-7.794-1.182c-11.44,0-20.07,8.617-20.07,20.073c0,11.382,7.615,19.647,18.094,19.647
	c3.625,0,7.033-0.906,11.025-2.961l-0.016,3.29c2.642-0.511,5.668-1.568,8.66-3.684V23.092
	C299.057,23.481,295.579,24.466,292.088,26.987"/>
<path id="path5057_1_" inkscape:connector-curvature="0" fill="#1F3562" d="M352.781,74.342c-2.906,1.676-5.401,2.49-7.624,2.49
	c-6.374,0-10.185-4.196-10.185-11.259c0-8.02,4.492-13.412,11.179-13.412c1.801,0,3.962,0.68,6.63,2.096V74.342z M362.696,45.807
	c0-0.224-0.196-0.409-0.42-0.409l-7.787,0.015c-0.237,0-0.423,0.193-0.423,0.418v1.323h-0.196c-3.594-1.571-6.672-2.308-9.691-2.308
	c-10.782,0-19.242,8.945-19.242,20.399c0,11.571,7.567,19.324,18.829,19.324c3.008,0,6.874-0.201,10.482-4.367v4.683
	c2.557-0.54,5.572-1.624,8.436-3.686L362.696,45.807z"/>
<path id="path5061_1_" inkscape:connector-curvature="0" fill="#1F3562" d="M112.153,73.689l24.151-0.003
	c-0.367,2.694-1.278,5.861-3.371,9.081h-20.729h-4.12h-0.282c-3.073,0-5.602-2.383-5.907-5.402c-0.007-0.038-0.026-0.08-0.035-0.119
	V52.503V29.612c0.009-0.035,0.028-0.082,0.035-0.117c0.306-3.023,2.834-5.413,5.907-5.413c0.1,0,0.192,0.019,0.282,0.019
	l28.165-0.011c-0.367,2.699-1.278,5.939-3.37,9.144h-20.726v12.964h20.517c0.089,0,0.152,0.069,0.152,0.139v9
	c0,0.069-0.063,0.14-0.152,0.14h-20.517v18.211V73.689z"/>
<path id="path5065_1_" inkscape:connector-curvature="0" fill="#1F3562" d="M372.986,44.834h1.117c1.254,0,1.845-0.352,1.845-1.217
	c0-0.899-0.63-1.27-1.927-1.27h-1.035V44.834z M374.338,41.271c2.235,0,3.351,0.76,3.351,2.154c0,1.155-0.626,1.938-1.764,2.197
	l1.764,3.583h-1.898l-1.569-3.308h-1.235v3.308h-1.702v-7.934H374.338z M369.972,41.054c-1.178,1.198-1.823,2.727-1.823,4.309
	c0,1.587,0.606,3.078,1.745,4.232c1.15,1.158,2.66,1.802,4.188,1.802c1.669,0,3.175-0.605,4.371-1.76
	c1.136-1.096,1.76-2.587,1.76-4.173c0-1.707-0.587-3.178-1.721-4.332c-1.178-1.174-2.646-1.802-4.309-1.802
	C372.54,39.329,371.106,39.915,369.972,41.054 M379.238,40.405c1.313,1.336,2.019,3.059,2.019,4.957
	c0,1.961-0.726,3.703-2.076,5.016c-1.395,1.354-3.179,2.077-5.021,2.077c-1.88,0-3.663-0.764-5.01-2.134
	c-1.336-1.352-2.059-3.097-2.059-4.958c0-1.88,0.76-3.683,2.134-5.053c1.332-1.332,3.016-2.019,4.935-2.019
	C376.101,38.29,377.863,39.016,379.238,40.405"/>
<path id="path5069_1_" inkscape:connector-curvature="0" fill="#1F3561" d="M50.808,33.367l-1.749-4.95L34.222,8.587l2.664-0.664
	l25.586,22.115l15.053-4.309c1.769-0.452,3.773-0.552,5.309-0.541C78.101,14.98,69.441,6.606,58.011,2.529
	c-22.601-8.05-47.45,3.757-55.489,26.366c-2.486,6.996-3.073,14.208-2.03,21.072L36.554,37.44L50.808,33.367z"/>
<path id="path5073_1_" inkscape:connector-curvature="0" fill="#1F3561" d="M84.419,29.096c-1.325,0.849-3.26,1.984-5.19,2.603
	l-15.091,4.3L54.072,68.317l-2.614,0.854l2.13-24.686l-1.193-5.124L38.26,43.401L0.883,52.196
	C3.853,66.573,14.029,79.102,28.87,84.391c22.606,8.054,47.439-3.761,55.486-26.354C87.819,48.3,87.595,38.142,84.419,29.096"/>
<path id="path5081_1_" inkscape:connector-curvature="0" fill="#1F3561" d="M81.957,83.672c-2.386,0-3.864-1.864-3.864-4.146
	c0-2.444,1.695-4.15,3.864-4.15c2.15,0,3.837,1.706,3.837,4.15C85.794,81.974,84.107,83.672,81.957,83.672 M81.957,74.908
	c-2.443,0-4.533,1.838-4.533,4.617c0,2.622,1.884,4.599,4.533,4.599c2.417,0,4.51-1.826,4.51-4.599
	C86.467,76.746,84.375,74.908,81.957,74.908"/>
<path id="path5085_1_" inkscape:connector-curvature="0" fill="#1F3561" d="M80.872,79.145v-1.678h1.139
	c0.57,0,1.25,0.079,1.25,0.783c0,0.826-0.628,0.895-1.335,0.895H80.872z M84.1,78.361c0-1.107-0.676-1.571-1.993-1.571h-2.069v5.455
	h0.896v-2.332h0.841l1.414,2.332H84.2l-1.526-2.393C83.497,79.75,84.1,79.351,84.1,78.361"/>
</svg>
